<?xml version="1.0" encoding="utf-8"?>
<!-- Generator: Adobe Illustrator 26.0.1, SVG Export Plug-In . SVG Version: 6.00 Build 0)  -->
<svg version="1.1" id="Calque_1" xmlns="http://www.w3.org/2000/svg" xmlns:xlink="http://www.w3.org/1999/xlink" x="0px" y="0px"
	 viewBox="0 0 517.7 195.8" style="enable-background:new 0 0 517.7 195.8;" xml:space="preserve">
<style type="text/css">
	.st0{fill:#FFFFFF;}
</style>
<path class="st0" d="M184.4,62.3c0.1-0.1,0.3-0.2,0.4-0.4c1.9-1.9,3.1-4.6,3.1-7.5c0-2.9-1.2-5.6-3.1-7.5c-1.9-1.9-4.6-3.1-7.5-3.1
	c-1,0-2,0.2-2.9,0.4c-2.9-4-6.1-7.8-9.5-11.2c-16.4-16.4-39-26.5-63.9-26.5c-25,0-47.6,10.1-63.9,26.5c-13.8,13.8-23.2,32-25.8,52.4
	h6.7C20.4,67,29,50.4,41.6,37.8c15.2-15.2,36.1-24.5,59.3-24.5c23.2,0,44.1,9.4,59.3,24.5c3.2,3.2,6.1,6.6,8.8,10.3
	c-1.4,1.8-2.2,4-2.2,6.4c0,2.9,1.2,5.6,3.1,7.5c1.9,1.9,4.6,3.1,7.5,3.1c0.4,0,0.7,0,1-0.1c4.1,9.9,6.4,20.7,6.4,32.1
	c0,23.2-9.4,44.1-24.5,59.3c-4.9,4.9-10.5,9.3-16.5,12.9l-7.3-13.2c4.8-2.9,9.2-6.4,13.2-10.3c2.6-2.6,5-5.4,7.1-8.3
	c0.7,0.1,1.4,0.2,2.1,0.2c2.9,0,5.6-1.2,7.5-3.1c1.9-1.9,3.1-4.6,3.1-7.5c0-2.9-1.2-5.6-3.1-7.5c-0.1-0.1-0.2-0.1-0.2-0.2
	c2.4-7,3.7-14.5,3.7-22.3c0-19-7.7-36.2-20.1-48.6c-12.4-12.4-29.6-20.1-48.6-20.1c-4.3,0-8.6,0.4-12.7,1.2l2.1,6.3
	c3.4-0.6,7-0.9,10.6-0.9c15.5,0,29.7,5.7,40.5,15.1l-9.9,10.2c-8.3-6.9-19-11.1-30.6-11.1c-13.2,0-25.2,5.4-33.9,14
	c-8.7,8.7-14,20.7-14,33.9c0,13.2,5.4,25.2,14,33.9c1.5,1.5,3,2.8,4.6,4.1c-0.3,1-0.5,2.1-0.5,3.2c0,2.9,1.2,5.6,3.1,7.5
	c1.9,1.9,4.6,3.1,7.5,3.1c2.9,0,5.6-1.2,7.5-3.1c0.1-0.1,0.1-0.1,0.2-0.2c1.8-1.9,2.9-4.5,2.9-7.3c0-2.8-1.1-5.4-2.9-7.3
	c-0.1-0.1-0.1-0.1-0.2-0.2c-1.9-1.9-4.6-3.1-7.5-3.1c-2.3,0-4.5,0.8-6.2,2c-1.3-1-2.6-2.2-3.8-3.4c-6.5-6.5-10.8-15-11.8-24.6h15.8
	c0.9,5.2,3.5,9.9,7.1,13.5c4.6,4.6,11.1,7.5,18.1,7.5c7.1,0,13.5-2.9,18.1-7.5c4.6-4.6,7.5-11.1,7.5-18.1c0-7.1-2.9-13.5-7.5-18.1
	c-1.9-1.9-4.1-3.5-6.6-4.8V82c0.7,0.5,1.3,1.1,1.9,1.7c3.4,3.5,5.6,8.2,5.6,13.4c0,5.3-2.1,10-5.6,13.4c-3.5,3.4-8.2,5.6-13.4,5.6
	c-5.3,0-10-2.1-13.4-5.6c-3.4-3.5-5.6-8.2-5.6-13.4c0-5.3,2.1-10,5.6-13.4c0.6-0.6,1.2-1.2,1.9-1.7v-7.8c-2.4,1.2-4.7,2.8-6.6,4.8
	c-4.2,4.2-6.9,9.8-7.4,16.1H59.7c0.5-10.6,5-20.1,12-27.2c7.5-7.5,17.8-12.1,29.2-12.1c11.4,0,21.7,4.6,29.2,12.1
	c7.5,7.5,12.1,17.8,12.1,29.2c0,11.4-4.6,21.7-12.1,29.2c-4.9,4.8-10.9,8.5-17.7,10.4v6.8c8.6-2.1,16.3-6.6,22.3-12.6
	c8.7-8.7,14-20.7,14-33.9c0-12.4-4.7-23.8-12.5-32.3l9.9-10.2c10.4,11.1,16.8,26,16.8,42.5c0,6.8-1.1,13.3-3.1,19.5
	c-0.4,0-0.8-0.1-1.2-0.1c-2.9,0-5.6,1.2-7.5,3.1c-1.9,1.9-3.1,4.6-3.1,7.5c0,2.7,1,5.2,2.7,7c-1.8,2.5-3.8,4.8-6,7
	c-11.3,11.3-26.8,18.2-43.9,18.2c-17.2,0-32.7-7-43.9-18.2c-11.3-11.3-18.2-26.8-18.2-43.9c0-17,6.8-32.4,17.9-43.7
	c1.7,1.3,3.9,2,6.2,2c2.9,0,5.6-1.2,7.5-3.1c1-1,1.9-2.3,2.4-3.7c0.4-1.2,0.7-2.4,0.7-3.7c0-2.9-1.2-5.6-3.1-7.5
	c-1.3-1.3-2.9-2.3-4.8-2.7c-0.9-0.2-1.8-0.4-2.7-0.4c-2.9,0-5.6,1.2-7.5,3.1c-1.9,1.9-3.1,4.6-3.1,7.5c0,1.1,0.2,2.1,0.5,3.1
	c-0.2,0.2-0.3,0.3-0.5,0.5C39.8,60.9,32.1,78.1,32.1,97.1c0,19,7.7,36.2,20.1,48.6c12.4,12.4,29.6,20.1,48.6,20.1
	c10.6,0,20.7-2.4,29.6-6.7l7.3,13.2c-11.1,5.5-23.7,8.6-36.9,8.6c-23.2,0-44.1-9.4-59.3-24.5c-8.7-8.7-15.4-19.2-19.6-31
	c0.8-0.5,1.5-1,2.2-1.7c1.9-1.9,3.1-4.6,3.1-7.5c0-2.9-1.2-5.6-3.1-7.5c-0.1-0.1-0.1-0.1-0.2-0.2c-1.9-1.8-4.5-2.9-7.3-2.9
	c-2.8,0-5.4,1.1-7.3,2.9c-0.1,0.1-0.1,0.1-0.2,0.2c-1.9,1.9-3.1,4.6-3.1,7.5c0,2.9,1.2,5.6,3.1,7.5c1.6,1.6,3.8,2.7,6.2,3
	c4.5,13,12,24.7,21.5,34.3c16.4,16.4,39,26.5,63.9,26.5c25,0,47.6-10.1,63.9-26.5c16.4-16.4,26.5-39,26.5-63.9
	C191.3,84.8,188.8,73,184.4,62.3z M177.3,59.2c-1.3,0-2.5-0.5-3.3-1.4c-0.9-0.9-1.4-2-1.4-3.3c0-1.3,0.5-2.5,1.4-3.3
	c0.9-0.9,2-1.4,3.3-1.4c1.3,0,2.5,0.5,3.3,1.4c0.9,0.9,1.4,2,1.4,3.3c0,1.3-0.5,2.5-1.4,3.3C179.8,58.7,178.6,59.2,177.3,59.2z
	 M78.4,134.9c0.9-0.9,2-1.4,3.3-1.4c1.3,0,2.5,0.5,3.3,1.4c0.9,0.9,1.4,2,1.4,3.3c0,1.3-0.5,2.5-1.4,3.3c-0.9,0.9-2,1.4-3.3,1.4
	c-1.3,0-2.5-0.5-3.3-1.4c-0.9-0.9-1.4-2-1.4-3.3C77,136.9,77.6,135.7,78.4,134.9z M155.4,123.7c0.9-0.9,2-1.4,3.3-1.4
	c1.3,0,2.5,0.5,3.3,1.4c0.9,0.9,1.4,2,1.4,3.3c0,1.3-0.5,2.5-1.4,3.3c-0.9,0.9-2,1.4-3.3,1.4c-1.3,0-2.5-0.5-3.3-1.4
	c-0.9-0.9-1.4-2-1.4-3.3C154,125.7,154.6,124.6,155.4,123.7z M59.6,41.6c0.9-0.9,2-1.4,3.3-1.4c1.3,0,2.5,0.5,3.3,1.4
	c0.9,0.9,1.4,2,1.4,3.3c0,1.3-0.5,2.5-1.4,3.3c-0.9,0.9-2,1.4-3.3,1.4c-1.3,0-2.5-0.5-3.3-1.4c-0.9-0.9-1.4-2-1.4-3.3
	C58.2,43.6,58.7,42.4,59.6,41.6z M13.4,119.5c-0.9-0.9-1.4-2-1.4-3.3c0-1.3,0.5-2.5,1.4-3.3c0.9-0.9,2-1.4,3.3-1.4
	c1.3,0,2.5,0.5,3.3,1.4c0.9,0.9,1.4,2,1.4,3.3c0,1.3-0.5,2.5-1.4,3.3c-0.9,0.9-2,1.4-3.3,1.4C15.4,120.9,14.3,120.4,13.4,119.5z"/>
<g>
	<path class="st0" d="M260.3,96.9c0,10.1-7.2,16.5-17.3,16.5h-10.2V80.8H243C253.1,80.8,260.3,86.9,260.3,96.9z M254.2,96.9
		c0-6.9-4.3-10.9-11.2-10.9h-4.4v22.3h4.4C249.8,108.3,254.2,103.8,254.2,96.9z"/>
	<path class="st0" d="M288.9,106.9h-13.6l-2.5,6.5h-6.3l12.9-32.7h5.3l12.8,32.7h-6.3L288.9,106.9z M287.5,101.9l-5.3-14l-5.4,14
		H287.5z"/>
	<path class="st0" d="M327.9,86h-10.3v27.4h-5.9V86h-10.3v-5.1h26.6V86z"/>
	<path class="st0" d="M353.8,106.9h-13.6l-2.5,6.5h-6.3l12.9-32.7h5.3l12.8,32.7h-6.3L353.8,106.9z M352.3,101.9l-5.3-14l-5.4,14
		H352.3z"/>
	<path class="st0" d="M402.8,80.8v32.6h-5.9V90.7l-7.7,9h-3.5l-7.7-9v22.7h-5.8V80.8h3.8L387.5,94l11.4-13.1H402.8z"/>
	<path class="st0" d="M434.7,106.9h-13.6l-2.5,6.5h-6.3l12.9-32.7h5.3l12.8,32.7h-6.3L434.7,106.9z M433.2,101.9l-5.3-14l-5.4,14
		H433.2z"/>
	<path class="st0" d="M475.2,85.3l-16.5,23h17.4v5.1h-24.3v-4.6L468.2,86h-15.1v-5.1h22V85.3z"/>
	<path class="st0" d="M493.5,86v7.8h15.4v5.1h-15.4v9.4h16.1v5.1h-21.9V80.8h21.9V86H493.5z"/>
</g>
<g>
</g>
<g>
</g>
<g>
</g>
<g>
</g>
<g>
</g>
<g>
</g>
</svg>
