<?xml version="1.0" encoding="utf-8"?>
<!-- Generator: Adobe Illustrator 26.0.1, SVG Export Plug-In . SVG Version: 6.00 Build 0)  -->
<svg version="1.1" id="Calque_1" xmlns="http://www.w3.org/2000/svg" xmlns:xlink="http://www.w3.org/1999/xlink" x="0px" y="0px"
	 viewBox="0 0 185.2 180.7" style="enable-background:new 0 0 185.2 180.7;" xml:space="preserve">
<style type="text/css">
	.st0{fill:#FFFFFF;}
</style>
<path class="st0" d="M178.2,55.6c0.1-0.1,0.3-0.2,0.4-0.4c1.9-1.9,3.1-4.6,3.1-7.5c0-2.9-1.2-5.6-3.1-7.5c-1.9-1.9-4.6-3.1-7.5-3.1
	c-1,0-2,0.2-2.9,0.4c-2.9-4-6.1-7.8-9.5-11.2C142.3,10.1,119.7,0,94.7,0c-25,0-47.6,10.1-63.9,26.5C17,40.2,7.6,58.5,5,78.9h6.7
	c2.6-18.5,11.1-35.1,23.8-47.7C50.7,16,71.6,6.6,94.7,6.6c23.2,0,44.1,9.4,59.3,24.5c3.2,3.2,6.1,6.6,8.8,10.3
	c-1.4,1.8-2.2,4-2.2,6.4c0,2.9,1.2,5.6,3.1,7.5c1.9,1.9,4.6,3.1,7.5,3.1c0.4,0,0.7,0,1-0.1c4.1,9.9,6.4,20.7,6.4,32.1
	c0,23.2-9.4,44.1-24.5,59.3c-4.9,4.9-10.5,9.3-16.5,12.9l-7.3-13.2c4.8-2.9,9.2-6.4,13.2-10.3c2.6-2.6,5-5.4,7.1-8.3
	c0.7,0.1,1.4,0.2,2.1,0.2c2.9,0,5.6-1.2,7.5-3.1c1.9-1.9,3.1-4.6,3.1-7.5c0-2.9-1.2-5.6-3.1-7.5c-0.1-0.1-0.2-0.1-0.2-0.2
	c2.4-7,3.7-14.5,3.7-22.3c0-19-7.7-36.2-20.1-48.6c-12.4-12.4-29.6-20.1-48.6-20.1c-4.3,0-8.6,0.4-12.7,1.2l2.1,6.3
	c3.4-0.6,7-0.9,10.6-0.9c15.5,0,29.7,5.7,40.5,15.1l-9.9,10.2c-8.3-6.9-19-11.1-30.6-11.1c-13.2,0-25.2,5.4-33.9,14
	c-8.7,8.7-14,20.7-14,33.9c0,13.2,5.4,25.2,14,33.9c1.5,1.5,3,2.8,4.6,4.1c-0.3,1-0.5,2.1-0.5,3.2c0,2.9,1.2,5.6,3.1,7.5
	c1.9,1.9,4.6,3.1,7.5,3.1c2.9,0,5.6-1.2,7.5-3.1c0.1-0.1,0.1-0.1,0.2-0.2c1.8-1.9,2.9-4.5,2.9-7.3c0-2.8-1.1-5.4-2.9-7.3
	c-0.1-0.1-0.1-0.1-0.2-0.2c-1.9-1.9-4.6-3.1-7.5-3.1c-2.3,0-4.5,0.8-6.2,2c-1.3-1-2.6-2.2-3.8-3.4c-6.5-6.5-10.8-15-11.8-24.6h15.8
	c0.9,5.2,3.5,9.9,7.1,13.5c4.6,4.6,11.1,7.5,18.1,7.5c7.1,0,13.5-2.9,18.1-7.5c4.6-4.6,7.5-11.1,7.5-18.1c0-7.1-2.9-13.5-7.5-18.1
	c-1.9-1.9-4.1-3.5-6.6-4.8v7.8c0.7,0.5,1.3,1.1,1.9,1.7c3.4,3.5,5.6,8.2,5.6,13.4c0,5.3-2.1,10-5.6,13.4c-3.5,3.4-8.2,5.6-13.4,5.6
	c-5.3,0-10-2.1-13.4-5.6c-3.4-3.5-5.6-8.2-5.6-13.4c0-5.3,2.1-10,5.6-13.4c0.6-0.6,1.2-1.2,1.9-1.7v-7.8c-2.4,1.2-4.7,2.8-6.6,4.8
	c-4.2,4.2-6.9,9.8-7.4,16.1H53.5c0.5-10.6,5-20.1,12-27.2c7.5-7.5,17.8-12.1,29.2-12.1c11.4,0,21.7,4.6,29.2,12.1
	C131.4,68.7,136,79,136,90.4c0,11.4-4.6,21.7-12.1,29.2c-4.9,4.8-10.9,8.5-17.7,10.4v6.8c8.6-2.1,16.3-6.6,22.3-12.6
	c8.7-8.7,14-20.7,14-33.9c0-12.4-4.7-23.8-12.5-32.3l9.9-10.2c10.4,11.1,16.8,26,16.8,42.5c0,6.8-1.1,13.3-3.1,19.5
	c-0.4,0-0.8-0.1-1.2-0.1c-2.9,0-5.6,1.2-7.5,3.1c-1.9,1.9-3.1,4.6-3.1,7.5c0,2.7,1,5.2,2.7,7c-1.8,2.5-3.8,4.8-6,7
	c-11.3,11.3-26.8,18.2-43.9,18.2c-17.2,0-32.7-7-43.9-18.2c-11.3-11.3-18.2-26.8-18.2-43.9c0-17,6.8-32.4,17.9-43.7
	c1.7,1.3,3.9,2,6.2,2c2.9,0,5.6-1.2,7.5-3.1c1-1,1.9-2.3,2.4-3.7c0.4-1.2,0.7-2.4,0.7-3.7c0-2.9-1.2-5.6-3.1-7.5
	c-1.3-1.3-2.9-2.3-4.8-2.7c-0.9-0.2-1.8-0.4-2.7-0.4c-2.9,0-5.6,1.2-7.5,3.1c-1.9,1.9-3.1,4.6-3.1,7.5c0,1.1,0.2,2.1,0.5,3.1
	c-0.2,0.2-0.3,0.3-0.5,0.5C33.7,54.2,26,71.4,26,90.4c0,19,7.7,36.2,20.1,48.6c12.4,12.4,29.6,20.1,48.6,20.1
	c10.6,0,20.7-2.4,29.6-6.7l7.3,13.2c-11.1,5.5-23.7,8.6-36.9,8.6c-23.2,0-44.1-9.4-59.3-24.5c-8.7-8.7-15.4-19.2-19.6-31
	c0.8-0.5,1.5-1,2.2-1.7c1.9-1.9,3.1-4.6,3.1-7.5c0-2.9-1.2-5.6-3.1-7.5c-0.1-0.1-0.1-0.1-0.2-0.2c-1.9-1.8-4.5-2.9-7.3-2.9
	c-2.8,0-5.4,1.1-7.3,2.9c-0.1,0.1-0.1,0.1-0.2,0.2C1.2,104,0,106.7,0,109.6c0,2.9,1.2,5.6,3.1,7.5c1.6,1.6,3.8,2.7,6.2,3
	c4.5,13,12,24.7,21.5,34.3c16.4,16.4,39,26.5,63.9,26.5c25,0,47.6-10.1,63.9-26.5c16.4-16.4,26.5-39,26.5-63.9
	C185.2,78.1,182.7,66.3,178.2,55.6z M171.2,52.5c-1.3,0-2.5-0.5-3.3-1.4c-0.9-0.9-1.4-2-1.4-3.3c0-1.3,0.5-2.5,1.4-3.3
	c0.9-0.9,2-1.4,3.3-1.4c1.3,0,2.5,0.5,3.3,1.4c0.9,0.9,1.4,2,1.4,3.3c0,1.3-0.5,2.5-1.4,3.3C173.6,52,172.5,52.5,171.2,52.5z
	 M72.3,128.2c0.9-0.9,2-1.4,3.3-1.4c1.3,0,2.5,0.5,3.3,1.4c0.9,0.9,1.4,2,1.4,3.3c0,1.3-0.5,2.5-1.4,3.3c-0.9,0.9-2,1.4-3.3,1.4
	c-1.3,0-2.5-0.5-3.3-1.4c-0.9-0.9-1.4-2-1.4-3.3C70.9,130.2,71.4,129,72.3,128.2z M149.3,117c0.9-0.9,2-1.4,3.3-1.4
	c1.3,0,2.5,0.5,3.3,1.4c0.9,0.9,1.4,2,1.4,3.3c0,1.3-0.5,2.5-1.4,3.3c-0.9,0.9-2,1.4-3.3,1.4c-1.3,0-2.5-0.5-3.3-1.4
	c-0.9-0.9-1.4-2-1.4-3.3C147.9,119,148.4,117.9,149.3,117z M53.4,34.9c0.9-0.9,2-1.4,3.3-1.4c1.3,0,2.5,0.5,3.3,1.4
	c0.9,0.9,1.4,2,1.4,3.3c0,1.3-0.5,2.5-1.4,3.3c-0.9,0.9-2,1.4-3.3,1.4c-1.3,0-2.5-0.5-3.3-1.4c-0.9-0.9-1.4-2-1.4-3.3
	C52,36.9,52.6,35.7,53.4,34.9z M7.2,112.9c-0.9-0.9-1.4-2-1.4-3.3c0-1.3,0.5-2.5,1.4-3.3c0.9-0.9,2-1.4,3.3-1.4
	c1.3,0,2.5,0.5,3.3,1.4c0.9,0.9,1.4,2,1.4,3.3c0,1.3-0.5,2.5-1.4,3.3c-0.9,0.9-2,1.4-3.3,1.4C9.3,114.2,8.1,113.7,7.2,112.9z"/>
<g>
</g>
<g>
</g>
<g>
</g>
<g>
</g>
<g>
</g>
<g>
</g>
</svg>
